<svg width="48" height="48" viewBox="0 0 48 48" fill="none" xmlns="http://www.w3.org/2000/svg">
<g clip-path="url(#clip0_7_244)">
<path d="M48 24C48 10.7452 37.2548 0 24 0C10.7452 0 0 10.7452 0 24C0 37.2548 10.7452 48 24 48C37.2548 48 48 37.2548 48 24Z" fill="#FFFBFB"/>
<path d="M26.4965 20.0283L30.1261 21.0861L33.1327 17.3124L35.8887 15.0224L38.9161 13.0771L40.542 11.9737L41.7119 12.8582L41.0452 18.4009L38.6863 24.1983L37.7176 27.4464L35.5676 28.1028L34.0917 29.5605L34.6939 32.5637L33.9113 35.0652L32.54 37.8569L31.7213 41.4593L30.4283 42.1257M26.4965 20.0283L28.9219 22.8887L27.524 26.9025L27.7329 29.5704L29.5961 31.4987L30.8648 36.7679L29.8997 41.602M26.4965 20.0283L24.9448 20.5159L23.1765 19.8001M26.4965 20.0283L23.1765 19.8001M30.4283 42.1257L29.8997 41.602M30.4283 42.1257L29.4877 42.6103L26.0083 41.9067L23.5392 41.612L22.0805 41.7263L17.9476 42.0499L16.9268 41.5087M29.8997 41.602L26.8839 39.0319L24.5439 37.2629M23.1765 19.8001L20.8669 19.9811L19.4348 18.8731L17.0816 13.8108L13.4768 9.94464L11.568 8.996L10.1777 11.5451L9.68002 17.6847L10.8994 20.7615L10.491 23.3557L12.9449 26.58L13.8451 28.7057L13.2677 30.7031L13.5147 33.8561L15.0701 36.5405L16.544 41.3056L16.9268 41.5087M23.1765 19.8001L21.0093 21.8L21.2277 24.5892L22.3427 26.3321L21.5507 28.7124L18.8593 30.2652L17.9267 32.4125L17.5012 36.3501L17.2809 39.7837L17.8533 40.8457M24.5439 37.2629L24.5649 35.0651M24.5439 37.2629L22.768 38.012L19.5905 39.6029L17.8533 40.8457M24.5649 35.0651L26.5609 34.9087L27.9797 32.7235C27.9797 32.7235 27.4845 31.2555 26.7244 30.7475C26.0229 30.2788 24.6104 30.3029 24.6104 30.3029C24.6104 30.3029 23.0071 30.0224 22.1793 30.4933C21.448 30.9093 20.8441 32.184 20.8441 32.184L21.9875 34.2908L24.5649 35.0651ZM17.8533 40.8457L16.9268 41.5087M18.6667 28C18.6667 28 19.0408 27.0787 18.6667 26.6667C18.2499 26.2077 18 26 18 26C18 26 16.1424 26.0363 16 26.6667C15.9052 27.0864 15.7197 27.6732 16 28C16.3529 28.4115 17.3333 28 17.3333 28H18.6667ZM31.8347 29.7373L32.2053 29.7083C32.5067 29.6847 32.7783 29.5172 32.9344 29.2584C33.1143 28.9605 33.1144 28.5877 32.9347 28.2899L32.8732 28.188C32.828 28.1129 32.7743 28.0435 32.7131 27.9809L32.5373 27.8011C32.2829 27.5409 31.9367 27.3908 31.5728 27.3831C31.1567 27.3741 30.7584 27.5523 30.4875 27.8684C30.4619 27.8983 30.4367 27.9276 30.4124 27.956C30.3743 28.0005 30.3408 28.0488 30.3124 28.1003C30.1273 28.4357 30.1865 28.8532 30.4575 29.1241L30.606 29.2727C30.6464 29.3131 30.6897 29.3504 30.7357 29.3843L30.8997 29.5051C30.9587 29.5485 31.0216 29.5865 31.0876 29.6184C31.2493 29.6967 31.4267 29.7373 31.6064 29.7373H31.8347Z" stroke="#BF472C" stroke-width="1.33333" stroke-linecap="round" stroke-linejoin="round"/>
<path d="M25.8863 19.3133C25.8656 19.3101 25.8447 19.3079 25.8236 19.3065L22.5144 19.0792C22.4844 19.0769 22.4544 19.0767 22.4245 19.0784C22.4207 19.0787 22.4168 19.0789 22.4129 19.0792L22.4088 19.0795L20.3583 19.2401L19.2579 18.3888L16.9731 13.4735C16.9435 13.4099 16.904 13.3512 16.8561 13.2999L13.2512 9.43376C13.1967 9.37524 13.132 9.32702 13.0603 9.2914L11.1515 8.34276C10.8307 8.1833 10.4411 8.30599 10.2696 8.62055L8.87925 11.1697C8.83457 11.2516 8.80758 11.342 8.80004 11.435L8.30238 17.5745C8.29412 17.6765 8.30942 17.7789 8.3471 17.8741L9.49933 20.7816L9.11929 23.1959C9.09102 23.3753 9.13728 23.5587 9.24734 23.7033L11.6505 26.8608L12.4258 28.6916L11.9141 30.4617C11.8919 30.5387 11.8837 30.6191 11.89 30.6989L12.1368 33.8519C12.1446 33.9513 12.1746 34.0477 12.2247 34.1341L13.7424 36.7533L15.194 41.4464C15.246 41.6148 15.3628 41.7559 15.5185 41.8384L15.8887 42.0347C15.8968 42.0392 15.9049 42.0435 15.9132 42.0477L16.9221 42.5825C17.034 42.6419 17.1603 42.6681 17.2865 42.6583L21.4193 42.3347L22.8124 42.2255L25.1893 42.5092L28.6425 43.2076C28.7911 43.2376 28.9453 43.2161 29.08 43.1467L30.0067 42.6692C30.0159 42.6647 30.0251 42.66 30.0341 42.6551L31.3136 41.9957C31.4885 41.9056 31.6147 41.7427 31.6583 41.5508L32.4596 38.0245L33.7965 35.3029C33.8116 35.2723 33.8243 35.2405 33.8344 35.208L34.6169 32.7065C34.6504 32.5997 34.6564 32.4861 34.6344 32.3764L34.1029 29.7259L35.2061 28.6363L37.1991 28.0279C37.4127 27.9627 37.5795 27.7948 37.6433 27.5807L38.6028 24.3635L40.9496 18.596C40.972 18.5411 40.9869 18.4833 40.994 18.4244L41.6607 12.8816C41.6891 12.6461 41.59 12.4133 41.4008 12.2702L40.2308 11.3857C40.0031 11.2135 39.6908 11.2055 39.4544 11.3659L37.8356 12.4646L34.8151 14.4053C34.7923 14.42 34.7703 14.436 34.7495 14.4535L31.9935 16.7435C31.9585 16.7725 31.9265 16.8051 31.8981 16.8408L29.1701 20.2648L25.9699 19.332C25.9425 19.324 25.9145 19.3177 25.8863 19.3133Z" stroke="#263DBF" stroke-width="1.33333" stroke-linecap="round" stroke-linejoin="round"/>
<path d="M27.3628 19.662L30.9924 20.72L33.9991 16.9461L36.7549 14.6561L39.7825 12.7109L41.4083 11.6075L42.5783 12.492L41.9116 18.0348L39.5527 23.832L38.584 27.0803L36.4339 27.7367L34.9581 29.1943L35.5603 32.1975L34.7777 34.6991L33.4064 37.4907L32.5877 41.0931L31.2947 41.7595M27.3628 19.662L29.7883 22.5224L28.3904 26.5363L28.5992 29.2043L30.4625 31.1325L31.7312 36.4017L30.7661 41.2357M27.3628 19.662L25.8111 20.1496L24.0429 19.434M27.3628 19.662L24.0429 19.434M31.2947 41.7595L30.7661 41.2357M31.2947 41.7595L30.3541 42.2441L26.8747 41.5405L24.4055 41.2457L22.9468 41.36L18.814 41.6836L17.7932 41.1424M30.7661 41.2357L27.7503 38.6656L25.4103 36.8967M24.0429 19.434L21.7333 19.6148L20.3012 18.5068L17.948 13.4445L14.3432 9.57843L12.4343 8.62979L11.044 11.1789L10.5464 17.3185L11.7657 20.3953L11.3574 22.9896L13.8112 26.2137L14.7115 28.3395L14.1341 30.3369L14.3809 33.4899L15.9365 36.1744L17.4104 40.9395L17.7932 41.1424M24.0429 19.434L21.8757 21.4339L22.0941 24.2231L23.2091 25.9659L22.4171 28.3461L19.7257 29.8991L18.7931 32.0463L18.3676 35.984L18.1473 39.4176L18.7196 40.4796M25.4103 36.8967L25.4313 34.6988M25.4103 36.8967L23.6344 37.6457L20.4568 39.2368L18.7196 40.4796M25.4313 34.6988L27.4273 34.5425L28.8461 32.3572C28.8461 32.3572 28.3508 30.8892 27.5907 30.3813C26.8893 29.9125 25.4768 29.9368 25.4768 29.9368C25.4768 29.9368 23.8733 29.6561 23.0457 30.1271C22.3144 30.5432 21.7104 31.8179 21.7104 31.8179L22.8539 33.9245L25.4313 34.6988ZM18.7196 40.4796L17.7932 41.1424M19.5452 27.5949C19.5452 27.5949 19.3288 26.7109 18.9545 26.2991C18.5377 25.8401 17.4389 25.6856 17.4389 25.6856C17.4389 25.6856 16.3201 26.1301 16.1777 26.7605C16.0829 27.1801 16.1045 27.5157 16.3848 27.8424C16.7377 28.2539 17.7504 28.1015 17.7504 28.1015L18.8539 28.1371L19.5452 27.5949ZM31.0363 27.6712C30.8791 27.8548 30.6823 28.0845 30.5131 28.2819C30.3161 28.5117 30.3691 28.8625 30.6247 29.0244C30.6445 29.0369 30.6635 29.0509 30.6813 29.0661L30.7313 29.1088C31.0179 29.3531 31.3895 29.4737 31.7648 29.4444L31.7865 29.4427L32.5159 29.3856L32.8865 29.3565C33.188 29.3329 33.4595 29.1655 33.6157 28.9067C33.7955 28.6089 33.7956 28.236 33.616 27.9381L33.5545 27.8363C33.5092 27.7613 33.4555 27.6917 33.3943 27.6292L33.2185 27.4493C32.9641 27.1892 32.6179 27.0391 32.254 27.0313C31.8379 27.0224 31.4396 27.2005 31.1688 27.5167C31.1224 27.5708 31.0772 27.6235 31.0363 27.6712Z" stroke="#CDDA71" stroke-width="1.33333" stroke-linecap="round" stroke-linejoin="round"/>
</g>
<defs>
<clipPath id="clip0_7_244">
<rect width="48" height="48" fill="white"/>
</clipPath>
</defs>
</svg>
