<svg width="36" height="36" viewBox="0 0 36 36" fill="none" xmlns="http://www.w3.org/2000/svg">
<g clip-path="url(#clip0_7_281)">
<path d="M18.8346 12.5636L22.4606 13.6204L25.4642 9.8504L28.2174 7.56267L31.2419 5.61936L32.8661 4.51705L34.0348 5.40065L33.3688 10.9378L31.0123 16.7294L30.0446 19.9743L27.8967 20.6301L26.4223 22.0864L27.0238 25.0866L26.2421 27.5855L24.8721 30.3745L24.0543 33.9733L22.7625 34.6391M18.8346 12.5636L21.2576 15.4211L19.8611 19.431L20.0698 22.0962L21.9312 24.0226L23.1986 29.2865L22.2345 34.1158M18.8346 12.5636L17.2845 13.0507L15.518 12.3357M18.8346 12.5636L15.518 12.3357M22.7625 34.6391L22.2345 34.1158M22.7625 34.6391L21.8229 35.1231L18.3469 34.4202L15.8803 34.1258L14.423 34.24L10.2942 34.5633L9.27443 34.0226M22.2345 34.1158L19.2216 31.5483L16.8839 29.7811M15.518 12.3357L13.2106 12.5164L11.7799 11.4095L9.42908 6.35228L5.82786 2.48996L3.92093 1.54227L2.53201 4.08884L2.03485 10.2223L3.25297 13.296L2.84502 15.8877L5.29646 19.1088L6.19576 21.2324L5.619 23.2277L5.86569 26.3777L7.41961 29.0594L8.89201 33.8197L9.27443 34.0226M15.518 12.3357L13.3529 14.3335L13.5711 17.12L14.6849 18.8612L13.8937 21.2391L11.205 22.7903L10.2733 24.9355L9.84826 28.8692L9.62821 32.2994L10.2 33.3603M16.8839 29.7811L16.905 27.5854M16.8839 29.7811L15.1098 30.5294L11.9355 32.1188L10.2 33.3603M16.905 27.5854L18.899 27.4292L20.3164 25.2461C20.3164 25.2461 19.8217 23.7796 19.0623 23.2721C18.3615 22.8039 16.9504 22.828 16.9504 22.828C16.9504 22.828 15.3487 22.5478 14.5217 23.0182C13.7911 23.4338 13.1879 24.7072 13.1879 24.7072L14.3301 26.8119L16.905 27.5854ZM10.2 33.3603L9.27443 34.0226M11.0126 20.5274C11.0126 20.5274 11.3863 19.607 11.0126 19.1954C10.5962 18.7369 10.3466 18.5294 10.3466 18.5294C10.3466 18.5294 8.49081 18.5656 8.34855 19.1954C8.25385 19.6147 8.06857 20.2009 8.34855 20.5274C8.70114 20.9384 9.68056 20.5274 9.68056 20.5274H11.0126ZM24.1675 22.263L24.5378 22.2339C24.8388 22.2104 25.1101 22.0431 25.2661 21.7845C25.4458 21.4869 25.4459 21.1145 25.2664 20.8169L25.205 20.7152C25.1598 20.6402 25.1061 20.5708 25.045 20.5083L24.8694 20.3286C24.6153 20.0688 24.2694 19.9188 23.9059 19.911C23.4901 19.9021 23.0923 20.0801 22.8216 20.3959C22.796 20.4257 22.7709 20.455 22.7466 20.4834C22.7085 20.5279 22.6751 20.5761 22.6467 20.6275C22.4618 20.9627 22.521 21.3797 22.7916 21.6504L22.94 21.7988C22.9804 21.8391 23.0237 21.8764 23.0696 21.9103L23.2335 22.0309C23.2923 22.0744 23.3552 22.1123 23.4212 22.1442C23.5827 22.2223 23.7599 22.263 23.9394 22.263H24.1675Z" stroke="#F2F2F2" stroke-linecap="round" stroke-linejoin="round"/>
<path d="M17.8665 11.5886C17.8466 11.5855 17.8266 11.5834 17.8064 11.5821L14.6326 11.364C14.6038 11.3619 14.575 11.3616 14.5464 11.3633C14.5427 11.3635 14.539 11.3638 14.5353 11.364L14.5313 11.3643L12.5647 11.5184L11.5093 10.7019L9.31798 5.98769C9.28959 5.9267 9.25174 5.87043 9.20583 5.82123L5.74843 2.11329C5.6961 2.05716 5.63408 2.01091 5.56536 1.97675L3.73467 1.06693C3.42692 0.913986 3.05332 1.03166 2.88877 1.33335L1.55535 3.77816C1.5125 3.85674 1.48662 3.94344 1.47938 4.03265L1.00209 9.92095C0.994163 10.0188 1.00884 10.117 1.04498 10.2083L2.15006 12.9968L1.78557 15.3123C1.75846 15.4844 1.80282 15.6602 1.90839 15.799L4.21322 18.8272L4.95683 20.5831L4.46606 22.2808C4.44473 22.3546 4.43687 22.4317 4.44287 22.5083L4.67966 25.5322C4.68713 25.6276 4.71591 25.7201 4.76388 25.803L6.21951 28.315L7.61171 32.816C7.66158 32.9775 7.7736 33.1128 7.92296 33.192L8.27795 33.3802C8.28575 33.3846 8.29355 33.3886 8.30148 33.3927L9.26913 33.9057C9.37642 33.9626 9.49752 33.9878 9.61862 33.9783L13.5823 33.6679L14.9184 33.5632L17.198 33.8353L20.5099 34.5051C20.6524 34.5339 20.8004 34.5133 20.9295 34.4467L21.8183 33.9888C21.8271 33.9844 21.8359 33.98 21.8446 33.9752L23.0717 33.3429C23.2395 33.2564 23.3605 33.1002 23.4023 32.9161L24.1708 29.5342L25.4531 26.9239C25.4675 26.8945 25.4797 26.8641 25.4894 26.8329L26.2399 24.4338C26.272 24.3313 26.2777 24.2224 26.2566 24.1171L25.7469 21.5751L26.805 20.5301L28.7164 19.9465C28.9212 19.884 29.0812 19.723 29.1424 19.5176L30.0627 16.4321L32.3134 10.9006C32.3349 10.8479 32.3492 10.7926 32.356 10.736L32.9954 5.42006C33.0226 5.19416 32.9276 4.97086 32.7462 4.83366L31.624 3.98536C31.4056 3.82017 31.1061 3.81252 30.8794 3.96636L29.3268 5.02008L26.4299 6.88143C26.408 6.8955 26.3869 6.91084 26.367 6.92759L23.7238 9.12389C23.6903 9.15177 23.6596 9.18297 23.6323 9.21724L21.016 12.5011L17.9466 11.6065C17.9204 11.5988 17.8936 11.5928 17.8665 11.5886Z" stroke="#626262" stroke-linecap="round" stroke-linejoin="round"/>
<path d="M19.4843 12.2888L23.1103 13.3458L26.114 9.57568L28.8671 7.28796L31.8917 5.34469L33.5158 4.24239L34.6846 5.12599L34.0186 10.6633L31.662 16.4547L30.6943 19.6997L28.5463 20.3555L27.0721 21.8116L27.6736 24.8118L26.8919 27.3109L25.5219 30.0998L24.704 33.6986L23.4123 34.3643M19.4843 12.2888L21.9074 15.1464L20.5109 19.1563L20.7195 21.8216L22.581 23.748L23.8484 29.0119L22.8843 33.8411M19.4843 12.2888L17.9341 12.776L16.1677 12.0611M19.4843 12.2888L16.1677 12.0611M23.4123 34.3643L22.8843 33.8411M23.4123 34.3643L22.4727 34.8485L18.9967 34.1456L16.5299 33.8511L15.0727 33.9652L10.944 34.2885L9.92423 33.7479M22.8843 33.8411L19.8714 31.2735L17.5337 29.5064M16.1677 12.0611L13.8604 12.2417L12.4297 11.1348L10.0789 6.07756L6.47767 2.2153L4.57071 1.26761L3.18179 3.81418L2.68463 9.94771L3.90275 13.0214L3.4948 15.6131L5.9462 18.8341L6.84557 20.9577L6.26881 22.9532L6.51536 26.1029L8.06941 28.7848L9.54181 33.5451L9.92423 33.7479M16.1677 12.0611L14.0027 14.0589L14.2209 16.8454L15.3347 18.5864L14.5435 20.9643L11.8548 22.5157L10.9231 24.6608L10.4981 28.5946L10.278 32.0248L10.8497 33.0857M17.5337 29.5064L17.5548 27.3107M17.5337 29.5064L15.7596 30.2547L12.5852 31.8442L10.8497 33.0857M17.5548 27.3107L19.5488 27.1546L20.9662 24.9714C20.9662 24.9714 20.4713 23.5049 19.7119 22.9975C19.0113 22.5292 17.6002 22.5534 17.6002 22.5534C17.6002 22.5534 15.9983 22.273 15.1715 22.7435C14.4409 23.1592 13.8375 24.4326 13.8375 24.4326L14.9799 26.5372L17.5548 27.3107ZM10.8497 33.0857L9.92423 33.7479M11.6745 20.2139C11.6745 20.2139 11.4583 19.3308 11.0844 18.9193C10.668 18.4608 9.57032 18.3064 9.57032 18.3064C9.57032 18.3064 8.45263 18.7505 8.31037 19.3803C8.21567 19.7995 8.23725 20.1348 8.51723 20.4611C8.86982 20.8722 9.88148 20.7199 9.88148 20.7199L10.9838 20.7555L11.6745 20.2139ZM23.1541 20.2901C22.9971 20.4735 22.8005 20.703 22.6314 20.9001C22.4347 21.1298 22.4876 21.4802 22.7429 21.6419C22.7628 21.6544 22.7817 21.6684 22.7995 21.6836L22.8495 21.7262C23.1357 21.9703 23.507 22.0908 23.8819 22.0615L23.9036 22.0598L24.6322 22.0028L25.0025 21.9737C25.3037 21.9502 25.5749 21.7828 25.731 21.5243C25.9106 21.2269 25.9107 20.8543 25.7313 20.5567L25.6699 20.455C25.6246 20.3801 25.5709 20.3106 25.5098 20.2481L25.3342 20.0684C25.0801 19.8085 24.7341 19.6586 24.3706 19.6508C23.9549 19.6419 23.5571 19.8199 23.2865 20.1357C23.2402 20.1898 23.195 20.2424 23.1541 20.2901Z" stroke="black" stroke-linecap="round" stroke-linejoin="round"/>
</g>
<defs>
<clipPath id="clip0_7_281">
<rect width="36" height="36" fill="white"/>
</clipPath>
</defs>
</svg>
