<svg width="207" height="45" viewBox="0 0 207 45" fill="none" xmlns="http://www.w3.org/2000/svg">
<path d="M23.5434 15.7044L28.0759 17.0254L31.8304 12.3129L35.2719 9.45324L39.0525 7.02409L41.0828 5.64622L42.5437 6.75072L41.7112 13.6722L38.7655 20.9117L37.5558 24.9678L34.871 25.7875L33.028 27.6078L33.7799 31.3581L32.8027 34.4818L31.0903 37.968L30.068 42.4665L28.4532 43.2987M23.5434 15.7044L26.5721 19.2763L24.8265 24.2886L25.0874 27.6202L27.4141 30.0281L28.9984 36.608L27.7932 42.6447M23.5434 15.7044L21.6057 16.3132L19.3976 15.4195M23.5434 15.7044L19.3976 15.4195M28.4532 43.2987L27.7932 42.6447M28.4532 43.2987L27.2787 43.9038L22.9337 43.0252L19.8505 42.6572L18.0289 42.7999L12.8679 43.204L11.5932 42.5282M27.7932 42.6447L24.0271 39.4352L21.105 37.2263M19.3976 15.4195L16.5134 15.6454L14.7251 14.2618L11.7865 7.94025L7.28497 3.11235L4.9013 1.92773L3.16515 5.11095L2.5437 12.7778L4.06635 16.6199L3.55641 19.8596L6.62071 23.8859L7.74484 26.5404L7.02389 29.0346L7.33225 32.972L9.27465 36.3242L11.1152 42.2746L11.5932 42.5282M19.3976 15.4195L16.6913 17.9168L16.964 21.3999L18.3563 23.5764L17.3673 26.5487L14.0064 28.4878L12.8418 31.1693L12.3105 36.0864L12.0354 40.3741L12.7502 41.7003M21.105 37.2263L21.1314 34.4817M21.105 37.2263L18.8874 38.1617L14.9195 40.1484L12.7502 41.7003M21.1314 34.4817L23.6239 34.2864L25.3956 31.5576C25.3956 31.5576 24.7772 29.7244 23.828 29.09C22.952 28.5048 21.1881 28.5349 21.1881 28.5349C21.1881 28.5349 19.186 28.1846 18.1523 28.7727C17.2391 29.2922 16.485 30.8839 16.485 30.8839L17.9127 33.5148L21.1314 34.4817ZM12.7502 41.7003L11.5932 42.5282M13.7658 25.6591C13.7658 25.6591 14.233 24.5086 13.7658 23.9941C13.2454 23.421 12.9333 23.1616 12.9333 23.1616C12.9333 23.1616 10.6137 23.2069 10.4358 23.9941C10.3174 24.5182 10.0858 25.251 10.4358 25.6591C10.8766 26.1729 12.1008 25.6591 12.1008 25.6591H13.7658ZM30.2095 27.8286L30.6724 27.7923C31.0486 27.7629 31.3878 27.5537 31.5828 27.2305C31.8074 26.8586 31.8076 26.393 31.5831 26.0211L31.5064 25.8939C31.4499 25.8001 31.3828 25.7134 31.3064 25.6353L31.0869 25.4107C30.7693 25.0858 30.3369 24.8984 29.8825 24.8887C29.3628 24.8776 28.8655 25.1 28.5272 25.4948C28.4952 25.5321 28.4637 25.5687 28.4334 25.6042C28.3858 25.6598 28.344 25.72 28.3085 25.7843C28.0774 26.2032 28.1514 26.7246 28.4897 27.0629L28.6752 27.2484C28.7256 27.2988 28.7797 27.3454 28.8372 27.3877L29.042 27.5386C29.1156 27.5929 29.1942 27.6403 29.2766 27.6801C29.4785 27.7778 29.7 27.8286 29.9244 27.8286H30.2095Z" stroke="#BF472C" stroke-width="1.25" stroke-linecap="round" stroke-linejoin="round"/>
<path d="M22.3331 14.4857C22.3083 14.4819 22.2832 14.4792 22.258 14.4776L18.2907 14.2051C18.2547 14.2023 18.2188 14.202 18.183 14.2041C18.1783 14.2044 18.1737 14.2047 18.1691 14.2051L18.1641 14.2054L15.7058 14.398L14.3866 13.3774L11.6475 7.48462C11.612 7.40837 11.5647 7.33804 11.5073 7.27654L7.18554 2.64161C7.12013 2.57145 7.04261 2.51363 6.9567 2.47094L4.66833 1.33366C4.28365 1.14248 3.81665 1.28957 3.61096 1.66668L1.94419 4.7227C1.89063 4.82093 1.85827 4.9293 1.84923 5.04081L1.25261 12.4012C1.2427 12.5235 1.26105 12.6462 1.30623 12.7604L2.68758 16.246L2.23196 19.1403C2.19808 19.3555 2.25353 19.5753 2.38548 19.7487L5.26653 23.534L6.19604 25.7289L5.58258 27.851C5.55592 27.9433 5.54609 28.0396 5.55358 28.1354L5.84957 31.9153C5.85891 32.0345 5.89489 32.1501 5.95485 32.2537L7.77438 35.3937L9.51464 41.02C9.57698 41.2219 9.717 41.391 9.9037 41.49L10.3474 41.7253C10.3572 41.7307 10.3669 41.7358 10.3769 41.7409L11.5864 42.3821C11.7205 42.4532 11.8719 42.4847 12.0233 42.4729L16.9779 42.0849L18.648 41.954L21.4976 42.2942L25.6374 43.1314C25.8155 43.1674 26.0004 43.1417 26.1619 43.0584L27.2728 42.486C27.2839 42.4805 27.2949 42.4749 27.3058 42.469L28.8396 41.6786C29.0494 41.5705 29.2006 41.3752 29.2529 41.1452L30.2135 36.9177L31.8163 33.6549C31.8344 33.6181 31.8496 33.5801 31.8617 33.5411L32.7999 30.5422C32.84 30.4142 32.8472 30.278 32.8208 30.1464L32.1836 26.9688L33.5062 25.6626L35.8954 24.9332C36.1515 24.855 36.3515 24.6538 36.4281 24.3971L37.5783 20.5401L40.3918 13.6258C40.4186 13.5599 40.4365 13.4907 40.445 13.4201L41.2442 6.77507C41.2783 6.4927 41.1595 6.21358 40.9327 6.04208L39.53 4.9817C39.257 4.77521 38.8827 4.76565 38.5993 4.95795L36.6586 6.2751L33.0374 8.60179C33.0101 8.61937 32.9837 8.63855 32.9587 8.65949L29.6547 11.4049C29.6128 11.4397 29.5745 11.4787 29.5404 11.5215L26.2699 15.6264L22.4333 14.5081C22.4005 14.4985 22.367 14.491 22.3331 14.4857Z" stroke="#263DBF" stroke-width="1.25" stroke-linecap="round" stroke-linejoin="round"/>
<path d="M24.3553 15.361L28.8878 16.6822L32.6424 11.9696L36.0838 9.10991L39.8645 6.68083L41.8947 5.30295L43.3557 6.40745L42.5232 13.329L39.5775 20.5683L38.3678 24.6246L35.6829 25.4443L33.84 27.2645L34.5919 31.0148L33.6147 34.1386L31.9023 37.6247L30.88 42.1232L29.2653 42.9554M24.3553 15.361L27.3841 18.933L25.6385 23.9453L25.8993 27.277L28.2261 29.6849L29.8104 36.2649L28.6052 42.3013M24.3553 15.361L22.4176 15.9699L20.2096 15.0763M24.3553 15.361L20.2096 15.0763M29.2653 42.9554L28.6052 42.3013M29.2653 42.9554L28.0908 43.5606L23.7457 42.682L20.6623 42.3138L18.8408 42.4565L13.6799 42.8606L12.4052 42.1848M28.6052 42.3013L24.8392 39.0919L21.9171 36.8829M20.2096 15.0763L17.3255 15.3021L15.5371 13.9185L12.5985 7.59692L8.09701 2.76909L5.71331 1.58447L3.97716 4.76768L3.35571 12.4346L4.87836 16.2768L4.36842 19.5164L7.43267 23.5425L8.55688 26.1971L7.83593 28.6914L8.14413 32.6286L10.0867 35.981L11.9272 41.9314L12.4052 42.1848M20.2096 15.0763L17.5033 17.5736L17.776 21.0567L19.1683 23.233L18.1793 26.2054L14.8185 28.1446L13.6538 30.8259L13.1225 35.7432L12.8474 40.0309L13.5621 41.3571M21.9171 36.8829L21.9434 34.1383M21.9171 36.8829L19.6994 37.8183L15.7314 39.8052L13.5621 41.3571M21.9434 34.1383L24.4359 33.9432L26.2076 31.2142C26.2076 31.2142 25.5891 29.381 24.6399 28.7468C23.7641 28.1614 22.0002 28.1917 22.0002 28.1917C22.0002 28.1917 19.9978 27.8412 18.9643 28.4293C18.0511 28.949 17.2968 30.5407 17.2968 30.5407L18.7248 33.1714L21.9434 34.1383ZM13.5621 41.3571L12.4052 42.1848M14.593 25.2673C14.593 25.2673 14.3228 24.1634 13.8554 23.6491C13.335 23.076 11.9628 22.883 11.9628 22.883C11.9628 22.883 10.5657 23.4381 10.3879 24.2254C10.2695 24.7493 10.2965 25.1684 10.6465 25.5763C11.0872 26.0902 12.3518 25.8998 12.3518 25.8998L13.7297 25.9443L14.593 25.2673ZM28.9426 25.3626C28.7463 25.5918 28.5005 25.8787 28.2892 26.1251C28.0433 26.4122 28.1094 26.8502 28.4286 27.0524C28.4534 27.068 28.477 27.0855 28.4993 27.1045L28.5618 27.1578C28.9196 27.4628 29.3836 27.6135 29.8523 27.5768L29.8795 27.5747L30.7902 27.5034L31.2531 27.4671C31.6296 27.4377 31.9686 27.2285 32.1637 26.9053C32.3881 26.5336 32.3883 26.0678 32.164 25.6959L32.0873 25.5687C32.0307 25.4751 31.9636 25.3882 31.8871 25.3101L31.6677 25.0855C31.35 24.7606 30.9176 24.5732 30.4632 24.5635C29.9436 24.5524 29.4462 24.7748 29.1081 25.1696C29.0501 25.2372 28.9937 25.3029 28.9426 25.3626Z" stroke="#CDDA71" stroke-width="1.25" stroke-linecap="round" stroke-linejoin="round"/>
<path d="M72.6025 28.8818L66.4502 16.6284L66.228 20.7471C66.1597 21.9434 66.097 23.134 66.04 24.3188C65.9945 25.4924 65.9033 26.6146 65.7666 27.6855C65.6299 28.7451 65.4134 29.7306 65.1172 30.6421C64.8324 31.5535 64.4108 32.3454 63.8525 33.0176C63.3057 33.6784 62.5879 34.1968 61.6992 34.5728C60.8219 34.9487 59.7225 35.1367 58.4009 35.1367C57.8198 35.1367 57.2616 35.0911 56.7261 35C56.1906 34.8975 55.7178 34.7607 55.3076 34.5898C54.8975 34.4189 54.5728 34.2196 54.3335 33.9917C54.0828 33.7524 53.9575 33.4961 53.9575 33.2227C53.9575 33.0176 53.986 32.8125 54.043 32.6074C54.0999 32.391 54.1854 32.1973 54.2993 32.0264C54.4132 31.8441 54.5557 31.7017 54.7266 31.5991C54.8861 31.4852 55.0684 31.4282 55.2734 31.4282C55.3988 31.4282 55.507 31.4909 55.5981 31.6162C55.7007 31.7415 55.8032 31.901 55.9058 32.0947C56.0083 32.277 56.1222 32.4764 56.2476 32.6929C56.3843 32.9093 56.5552 33.1144 56.7603 33.3081C56.9767 33.4904 57.2331 33.6442 57.5293 33.7695C57.8255 33.8949 58.1958 33.9575 58.6401 33.9575C59.5174 33.9575 60.2523 33.8094 60.8447 33.5132C61.4486 33.2056 61.9442 32.7669 62.3315 32.1973C62.7189 31.6276 63.0151 30.9383 63.2202 30.1294C63.4253 29.3205 63.5791 28.4033 63.6816 27.3779C63.7272 26.8083 63.7728 26.2614 63.8184 25.7373C63.8639 25.2018 63.9095 24.672 63.9551 24.1479C64.0007 23.6239 64.0405 23.0941 64.0747 22.5586C64.1203 22.0117 64.1659 21.4364 64.2114 20.8325C64.2684 19.9552 64.3197 19.1235 64.3652 18.3374C64.4108 17.5399 64.445 16.7993 64.4678 16.1157C64.502 15.4321 64.5247 14.8169 64.5361 14.27C64.5589 13.7231 64.576 13.2503 64.5874 12.8516C64.3937 12.4528 64.2228 12.1338 64.0747 11.8945C63.9266 11.6439 63.7728 11.4559 63.6133 11.3306C63.4538 11.1938 63.2772 11.1027 63.0835 11.0571C62.8898 11.0116 62.6562 10.9888 62.3828 10.9888C62.1549 10.9888 61.8701 11.0343 61.5283 11.1255C61.1979 11.2052 60.8504 11.3249 60.4858 11.4844C60.1326 11.6439 59.7738 11.8433 59.4092 12.0825C59.056 12.3104 58.737 12.5781 58.4521 12.8857C58.1787 13.182 57.9508 13.5124 57.7686 13.877C57.5977 14.2415 57.5122 14.6346 57.5122 15.0562C57.5122 15.4207 57.5578 15.7113 57.6489 15.9277C57.7515 16.1442 57.8654 16.3094 57.9907 16.4233C58.1274 16.5259 58.2585 16.5942 58.3838 16.6284C58.5205 16.6512 58.6174 16.6626 58.6743 16.6626C58.9591 16.6626 59.1927 16.617 59.375 16.5259C59.5573 16.4233 59.7225 16.3208 59.8706 16.2183C60.0187 16.1043 60.1554 16.0018 60.2808 15.9106C60.4175 15.8081 60.5713 15.7568 60.7422 15.7568C60.8789 15.7568 61.0213 15.791 61.1694 15.8594C61.3289 15.9163 61.4714 16.0132 61.5967 16.1499C61.7334 16.2866 61.8473 16.4689 61.9385 16.6968C62.0296 16.9132 62.0752 17.181 62.0752 17.5C62.0752 17.9557 61.984 18.3488 61.8018 18.6792C61.6309 19.0096 61.403 19.2887 61.1182 19.5166C60.8447 19.7331 60.5257 19.8983 60.1611 20.0122C59.8079 20.1147 59.4548 20.166 59.1016 20.166C58.5547 20.166 58.0591 20.0749 57.6147 19.8926C57.1818 19.6989 56.8115 19.4368 56.5039 19.1064C56.1963 18.776 55.9627 18.3887 55.8032 17.9443C55.6437 17.5 55.564 17.0272 55.564 16.5259C55.564 15.341 55.8374 14.3099 56.3843 13.4326C56.9312 12.5439 57.6489 11.8034 58.5376 11.2109C59.4263 10.6185 60.4289 10.1799 61.5454 9.89502C62.6733 9.5988 63.8184 9.45068 64.9805 9.45068C65.9147 9.45068 66.6951 9.54753 67.3218 9.74121C67.9484 9.9235 68.4725 10.1742 68.894 10.4932C69.3156 10.8008 69.6631 11.1654 69.9365 11.5869C70.21 12.0085 70.4606 12.4528 70.6885 12.9199L75.2002 22.0801C76.3737 19.7673 77.439 17.6994 78.396 15.8765C79.3644 14.0422 80.2588 12.43 81.0791 11.04C81.8994 9.65007 82.6628 8.46517 83.3691 7.48535C84.0869 6.50553 84.7762 5.70801 85.437 5.09277C86.1092 4.46615 86.77 4.01042 87.4194 3.72559C88.0802 3.44076 88.7638 3.29834 89.4702 3.29834C90.0741 3.29834 90.564 3.42936 90.9399 3.69141C91.3159 3.94206 91.5039 4.32373 91.5039 4.83643C91.5039 5.29215 91.4299 5.66813 91.2817 5.96436C91.1336 6.26058 90.9285 6.40869 90.6665 6.40869C90.45 6.40869 90.2848 6.32894 90.1709 6.16943C90.057 5.99854 89.943 5.81624 89.8291 5.62256C89.7266 5.42887 89.5955 5.25228 89.436 5.09277C89.2765 4.92188 89.043 4.83643 88.7354 4.83643C88.5531 4.83643 88.3309 4.8877 88.0688 4.99023C87.8068 5.09277 87.5334 5.24658 87.2485 5.45166C86.9751 5.65674 86.7017 5.91309 86.4282 6.2207C86.1548 6.52832 85.9155 6.88721 85.7104 7.29736C85.5054 7.70752 85.3459 8.17464 85.2319 8.69873C85.118 9.22282 85.0838 9.79818 85.1294 10.4248C85.175 11.1426 85.2376 11.9857 85.3174 12.9541C85.3971 13.9111 85.4826 14.9422 85.5737 16.0474C85.6763 17.1411 85.7788 18.2747 85.8813 19.4482C85.9953 20.6217 86.1092 21.7782 86.2231 22.9175C86.3371 24.0568 86.4453 25.1506 86.5479 26.1987C86.6618 27.2469 86.7643 28.1982 86.8555 29.0527C86.9466 29.8958 87.0321 30.6136 87.1118 31.2061C87.1916 31.7871 87.2542 32.1859 87.2998 32.4023C87.3682 32.7327 87.4593 33.0005 87.5732 33.2056C87.6872 33.3993 87.8923 33.4961 88.1885 33.4961C88.4961 33.4961 88.7866 33.4448 89.0601 33.3423C89.3335 33.2284 89.5785 33.1144 89.7949 33.0005L90.0684 33.6328C89.8633 33.7809 89.6012 33.9518 89.2822 34.1455C88.9746 34.3278 88.6157 34.5044 88.2056 34.6753C87.8068 34.8462 87.3625 34.9886 86.8726 35.1025C86.394 35.2165 85.8757 35.2734 85.3174 35.2734C84.5312 35.2734 83.9103 35.1766 83.4546 34.9829C82.9989 34.7778 82.6457 34.5329 82.395 34.248C82.1558 33.9518 81.9906 33.6442 81.8994 33.3252C81.8197 32.9948 81.757 32.6986 81.7114 32.4365C81.6089 31.8555 81.5007 31.1548 81.3867 30.3345C81.2728 29.5142 81.1589 28.6369 81.0449 27.7026C80.9424 26.757 80.8398 25.7886 80.7373 24.7974C80.6348 23.7948 80.5379 22.8206 80.4468 21.875C80.367 20.918 80.293 20.0179 80.2246 19.1748C80.1562 18.3317 80.0993 17.5968 80.0537 16.9702C79.7119 17.5285 79.3929 18.0697 79.0967 18.5938C78.8118 19.1064 78.5327 19.6362 78.2593 20.1831C77.9858 20.7186 77.7067 21.2826 77.4219 21.875C77.137 22.4674 76.8351 23.1112 76.5161 23.8062C76.2085 24.5011 75.8667 25.2645 75.4907 26.0962C75.1261 26.9279 74.7217 27.8564 74.2773 28.8818H72.6025ZM99.9292 26.1475C99.9292 25.8626 99.8381 25.6462 99.6558 25.498C99.4735 25.3499 99.2399 25.2759 98.9551 25.2759C98.5563 25.2759 98.1746 25.367 97.8101 25.5493C97.4569 25.7316 97.1436 25.9993 96.8701 26.3525C96.5967 26.7057 96.3802 27.1444 96.2207 27.6685C96.0612 28.1812 95.9814 28.7793 95.9814 29.4629C95.9814 30.1237 96.027 30.6706 96.1182 31.1035C96.2207 31.5365 96.3517 31.884 96.5112 32.146C96.6821 32.3966 96.8758 32.5732 97.0923 32.6758C97.3088 32.7783 97.5366 32.8296 97.7759 32.8296C98.0721 32.8296 98.3512 32.7555 98.6133 32.6074C98.8753 32.4479 99.1032 32.2485 99.2969 32.0093C99.4906 31.77 99.6444 31.5023 99.7583 31.2061C99.8722 30.9098 99.9292 30.6136 99.9292 30.3174V26.1475ZM97.2119 18.6621C96.8245 18.6621 96.4657 18.7077 96.1353 18.7988C95.8049 18.89 95.52 19.0039 95.2808 19.1406C95.0415 19.2773 94.8535 19.4312 94.7168 19.6021C94.5801 19.7616 94.5117 19.9154 94.5117 20.0635C94.5117 20.2344 94.5972 20.3597 94.7681 20.4395C94.9504 20.5078 95.1497 20.5933 95.3662 20.6958C95.5827 20.7869 95.7764 20.9237 95.9473 21.106C96.1296 21.2769 96.2207 21.5446 96.2207 21.9092C96.2207 22.1484 96.1694 22.3706 96.0669 22.5757C95.9757 22.7694 95.8447 22.946 95.6738 23.1055C95.5143 23.2536 95.3206 23.3732 95.0928 23.4644C94.8763 23.5441 94.6484 23.584 94.4092 23.584C93.7712 23.584 93.2528 23.3675 92.854 22.9346C92.4666 22.5016 92.2729 21.9263 92.2729 21.2085C92.2729 20.5135 92.4552 19.9211 92.8198 19.4312C93.1844 18.9299 93.6572 18.5197 94.2383 18.2007C94.8307 17.8817 95.4972 17.6481 96.2378 17.5C96.9784 17.3405 97.7189 17.2607 98.4595 17.2607C99.3481 17.2607 100.197 17.3576 101.006 17.5513C101.815 17.745 102.527 18.0526 103.142 18.4741C103.769 18.8957 104.264 19.4312 104.629 20.0806C105.005 20.73 105.193 21.5161 105.193 22.439V32.0947C105.193 32.1973 105.199 32.3112 105.21 32.4365C105.221 32.5618 105.25 32.6758 105.295 32.7783C105.341 32.8809 105.409 32.9663 105.5 33.0347C105.592 33.103 105.723 33.1372 105.894 33.1372C106.099 33.1372 106.287 33.0632 106.458 32.915C106.64 32.7555 106.799 32.596 106.936 32.4365L107.363 32.7954C107.192 33.0347 106.987 33.2967 106.748 33.5815C106.509 33.8664 106.218 34.1341 105.876 34.3848C105.535 34.6354 105.136 34.8462 104.68 35.0171C104.224 35.188 103.706 35.2734 103.125 35.2734C102.407 35.2734 101.769 35.0627 101.211 34.6411C100.653 34.2082 100.288 33.5474 100.117 32.6587C99.7526 33.1486 99.3709 33.5588 98.9722 33.8892C98.5848 34.2196 98.186 34.4873 97.7759 34.6924C97.3657 34.8975 96.9499 35.0456 96.5283 35.1367C96.1182 35.2279 95.7023 35.2734 95.2808 35.2734C94.7339 35.2734 94.2041 35.188 93.6914 35.0171C93.1787 34.8462 92.7173 34.5785 92.3071 34.2139C91.9084 33.8379 91.5837 33.3537 91.333 32.7612C91.0938 32.1688 90.9741 31.4453 90.9741 30.5908C90.9741 29.554 91.1792 28.7052 91.5894 28.0444C91.9995 27.3836 92.535 26.8311 93.1958 26.3867C93.868 25.931 94.6257 25.5436 95.4688 25.2246C96.3232 24.9056 97.1948 24.5695 98.0835 24.2163C98.7443 23.9543 99.2228 23.5669 99.519 23.0542C99.8267 22.5301 99.9805 21.9946 99.9805 21.4478C99.9805 20.6047 99.7298 19.9325 99.2285 19.4312C98.7386 18.9185 98.0664 18.6621 97.2119 18.6621ZM115.122 20.8667C115.555 20.2059 116.016 19.6077 116.506 19.0723C116.711 18.8444 116.934 18.6222 117.173 18.4058C117.412 18.1893 117.657 17.9956 117.908 17.8247C118.17 17.6538 118.438 17.5171 118.711 17.4146C118.984 17.312 119.258 17.2607 119.531 17.2607C120.112 17.2607 120.568 17.4373 120.898 17.7905C121.229 18.1323 121.394 18.6165 121.394 19.2432C121.394 19.6305 121.36 20.0065 121.292 20.3711C121.235 20.7243 121.115 21.1572 120.933 21.6699H120.454C120.386 21.3167 120.226 21.0262 119.976 20.7983C119.725 20.5591 119.36 20.4395 118.882 20.4395C118.529 20.4395 118.181 20.5078 117.839 20.6445C117.498 20.7699 117.161 20.9294 116.831 21.123C116.512 21.3167 116.204 21.5275 115.908 21.7554C115.623 21.9832 115.361 22.1997 115.122 22.4048V33.4961C115.122 33.6442 115.099 33.8208 115.054 34.0259C115.008 34.231 114.894 34.4246 114.712 34.6069C114.541 34.7892 114.279 34.943 113.926 35.0684C113.584 35.2051 113.111 35.2734 112.507 35.2734C111.903 35.2734 111.425 35.1994 111.072 35.0513C110.73 34.9146 110.468 34.7493 110.286 34.5557C110.103 34.362 109.989 34.1626 109.944 33.9575C109.898 33.7524 109.875 33.5872 109.875 33.4619V20.2686C109.875 19.9382 109.796 19.6533 109.636 19.4141C109.488 19.1634 109.232 19.0381 108.867 19.0381C108.674 19.0381 108.508 19.0723 108.372 19.1406C108.235 19.209 108.087 19.3058 107.927 19.4312L107.568 19.0039C107.83 18.7874 108.121 18.5767 108.44 18.3716C108.77 18.1551 109.124 17.9671 109.5 17.8076C109.875 17.6481 110.28 17.5171 110.713 17.4146C111.146 17.312 111.602 17.2607 112.08 17.2607C112.57 17.2607 112.986 17.3291 113.328 17.4658C113.681 17.5911 113.966 17.762 114.182 17.9785C114.41 18.1836 114.587 18.4172 114.712 18.6792C114.837 18.9412 114.928 19.209 114.985 19.4824C115.054 19.7445 115.094 20.0008 115.105 20.2515C115.116 20.4907 115.122 20.6958 115.122 20.8667ZM129.067 18.6279C128.805 18.6279 128.555 18.6621 128.315 18.7305C128.088 18.7988 127.882 18.9128 127.7 19.0723C127.518 19.2204 127.375 19.4141 127.273 19.6533C127.17 19.8812 127.119 20.1546 127.119 20.4736C127.119 20.918 127.279 21.3623 127.598 21.8066C127.928 22.2396 128.333 22.6953 128.811 23.1738C129.301 23.641 129.825 24.1309 130.383 24.6436C130.953 25.1449 131.477 25.6803 131.956 26.25C132.445 26.8083 132.85 27.4064 133.169 28.0444C133.499 28.6825 133.665 29.366 133.665 30.0952C133.665 30.9155 133.522 31.6447 133.237 32.2827C132.964 32.9207 132.565 33.4619 132.041 33.9062C131.528 34.3506 130.902 34.6924 130.161 34.9316C129.432 35.1595 128.617 35.2734 127.717 35.2734C126.931 35.2734 126.219 35.1652 125.581 34.9487C124.943 34.7209 124.373 34.4474 123.872 34.1284C123.382 33.798 122.961 33.4505 122.607 33.0859C122.254 32.7214 121.981 32.391 121.787 32.0947L122.385 31.6675C122.533 31.8384 122.721 32.0264 122.949 32.2314C123.177 32.4251 123.428 32.6074 123.701 32.7783C123.986 32.9492 124.288 33.0916 124.607 33.2056C124.926 33.3081 125.251 33.3594 125.581 33.3594C126.401 33.3594 127.074 33.1657 127.598 32.7783C128.122 32.3796 128.384 31.7928 128.384 31.0181C128.384 30.5851 128.241 30.1408 127.957 29.6851C127.672 29.2179 127.313 28.7394 126.88 28.2495C126.447 27.7596 125.98 27.2526 125.479 26.7285C124.977 26.2044 124.51 25.6632 124.077 25.105C123.644 24.5467 123.285 23.9714 123 23.3789C122.716 22.7865 122.573 22.1712 122.573 21.5332C122.573 20.8154 122.716 20.1888 123 19.6533C123.297 19.1178 123.684 18.6735 124.163 18.3203C124.653 17.9671 125.205 17.7051 125.82 17.5342C126.447 17.3519 127.091 17.2607 127.751 17.2607C128.515 17.2607 129.21 17.3291 129.836 17.4658C130.463 17.6025 130.999 17.8133 131.443 18.0981C131.899 18.3716 132.246 18.7191 132.485 19.1406C132.736 19.5622 132.861 20.0521 132.861 20.6104C132.861 21.0433 132.719 21.4193 132.434 21.7383C132.149 22.0573 131.75 22.2168 131.238 22.2168C130.748 22.2168 130.372 22.1143 130.11 21.9092C129.859 21.6927 129.734 21.4022 129.734 21.0376C129.734 20.7983 129.791 20.6104 129.905 20.4736C130.03 20.3369 130.167 20.2287 130.315 20.1489C130.463 20.0578 130.594 19.9837 130.708 19.9268C130.833 19.8584 130.896 19.7729 130.896 19.6704C130.896 19.3514 130.725 19.1007 130.383 18.9185C130.042 18.7248 129.603 18.6279 129.067 18.6279ZM141.252 27.1558C141.252 27.5203 141.304 27.9191 141.406 28.3521C141.52 28.7736 141.68 29.2008 141.885 29.6338C142.09 30.0667 142.34 30.4826 142.637 30.8813C142.944 31.2687 143.292 31.6162 143.679 31.9238C144.078 32.2314 144.517 32.4764 144.995 32.6587C145.474 32.841 145.998 32.9321 146.567 32.9321C146.966 32.9321 147.336 32.8866 147.678 32.7954C148.02 32.7043 148.339 32.5789 148.635 32.4194C148.931 32.2599 149.216 32.0776 149.49 31.8726C149.763 31.6561 150.037 31.4282 150.31 31.189L150.737 31.5991C150.475 31.9523 150.139 32.3397 149.729 32.7612C149.319 33.1828 148.823 33.5815 148.242 33.9575C147.661 34.3221 146.983 34.6297 146.208 34.8804C145.434 35.1196 144.551 35.2393 143.56 35.2393C142.568 35.2393 141.6 35.0627 140.654 34.7095C139.72 34.3449 138.888 33.8037 138.159 33.0859C137.43 32.3682 136.843 31.4738 136.399 30.4028C135.966 29.3319 135.75 28.0786 135.75 26.6431C135.75 25.6063 135.881 24.6549 136.143 23.7891C136.405 22.9232 136.758 22.1427 137.202 21.4478C137.658 20.7528 138.182 20.1432 138.774 19.6191C139.378 19.0951 140.011 18.6621 140.671 18.3203C141.332 17.9671 142.004 17.7051 142.688 17.5342C143.383 17.3519 144.049 17.2607 144.688 17.2607C145.531 17.2607 146.265 17.3519 146.892 17.5342C147.519 17.7165 148.037 17.9614 148.447 18.269C148.869 18.5767 149.182 18.9355 149.387 19.3457C149.592 19.7445 149.695 20.166 149.695 20.6104C149.695 21.1458 149.541 21.63 149.233 22.063C148.926 22.4845 148.516 22.8548 148.003 23.1738L141.252 27.1558ZM144.688 23.6865C144.836 23.5954 144.955 23.5099 145.046 23.4302C145.149 23.339 145.229 23.2365 145.286 23.1226C145.343 22.9972 145.382 22.8491 145.405 22.6782C145.439 22.4959 145.457 22.2738 145.457 22.0117C145.457 21.7269 145.422 21.4136 145.354 21.0718C145.297 20.7186 145.194 20.3882 145.046 20.0806C144.898 19.7729 144.71 19.5166 144.482 19.3115C144.255 19.1064 143.981 19.0039 143.662 19.0039C143.252 19.0039 142.899 19.1292 142.603 19.3799C142.318 19.6191 142.078 19.9325 141.885 20.3198C141.702 20.7072 141.554 21.1515 141.44 21.6528C141.338 22.1427 141.258 22.6383 141.201 23.1396C141.144 23.641 141.11 24.1252 141.099 24.5923C141.087 25.048 141.082 25.4354 141.082 25.7544L144.688 23.6865ZM157.983 33.4961C157.983 33.6442 157.955 33.8208 157.898 34.0259C157.852 34.231 157.733 34.4246 157.539 34.6069C157.357 34.7892 157.083 34.943 156.719 35.0684C156.366 35.2051 155.887 35.2734 155.283 35.2734C154.679 35.2734 154.207 35.1994 153.865 35.0513C153.523 34.9146 153.267 34.7493 153.096 34.5557C152.936 34.362 152.834 34.1626 152.788 33.9575C152.754 33.7524 152.737 33.5872 152.737 33.4619V11.416C152.737 11.0856 152.657 10.8008 152.498 10.5615C152.349 10.3109 152.093 10.1855 151.729 10.1855C151.535 10.1855 151.364 10.2197 151.216 10.2881C151.079 10.3451 150.931 10.4362 150.771 10.5615L150.43 10.1514C150.692 9.9349 150.982 9.72412 151.301 9.51904C151.62 9.30257 151.968 9.11458 152.344 8.95508C152.731 8.79557 153.141 8.66455 153.574 8.56201C154.007 8.45947 154.463 8.4082 154.941 8.4082C155.682 8.4082 156.257 8.51074 156.667 8.71582C157.078 8.90951 157.38 9.15446 157.573 9.45068C157.767 9.73551 157.881 10.0431 157.915 10.3735C157.961 10.6925 157.983 10.9774 157.983 11.228V33.4961ZM167.759 33.4619C167.759 33.61 167.73 33.7923 167.673 34.0088C167.628 34.2139 167.508 34.4132 167.314 34.6069C167.132 34.7892 166.864 34.943 166.511 35.0684C166.158 35.2051 165.68 35.2734 165.076 35.2734C164.472 35.2734 163.999 35.1994 163.657 35.0513C163.315 34.9146 163.059 34.7493 162.888 34.5557C162.717 34.362 162.609 34.1626 162.563 33.9575C162.529 33.7524 162.512 33.5872 162.512 33.4619V20.2686C162.512 19.9382 162.432 19.6533 162.273 19.4141C162.125 19.1634 161.868 19.0381 161.504 19.0381C161.31 19.0381 161.145 19.0723 161.008 19.1406C160.872 19.209 160.723 19.3058 160.564 19.4312L160.205 19.0039C160.467 18.7874 160.758 18.5767 161.077 18.3716C161.407 18.1551 161.76 17.9671 162.136 17.8076C162.512 17.6481 162.917 17.5171 163.35 17.4146C163.783 17.312 164.238 17.2607 164.717 17.2607C165.457 17.2607 166.033 17.3633 166.443 17.5684C166.853 17.762 167.155 18.007 167.349 18.3032C167.542 18.5881 167.656 18.8957 167.69 19.2261C167.736 19.5565 167.759 19.847 167.759 20.0977V33.4619ZM161.982 13.3643C161.982 13.0452 162.051 12.7433 162.188 12.4585C162.336 12.1623 162.535 11.9059 162.786 11.6895C163.048 11.473 163.344 11.3021 163.674 11.1768C164.016 11.0514 164.386 10.9888 164.785 10.9888C165.173 10.9888 165.531 11.0514 165.862 11.1768C166.204 11.3021 166.5 11.473 166.75 11.6895C167.001 11.9059 167.195 12.1623 167.332 12.4585C167.48 12.7433 167.554 13.0452 167.554 13.3643C167.554 13.6947 167.48 14.0023 167.332 14.2871C167.195 14.5719 167.001 14.8226 166.75 15.0391C166.5 15.2441 166.204 15.4093 165.862 15.5347C165.531 15.66 165.173 15.7227 164.785 15.7227C164.386 15.7227 164.016 15.66 163.674 15.5347C163.344 15.4093 163.048 15.2441 162.786 15.0391C162.535 14.8226 162.336 14.5719 162.188 14.2871C162.051 14.0023 161.982 13.6947 161.982 13.3643ZM182.131 26.4893C182.131 25.0537 182.063 23.9087 181.926 23.0542C181.801 22.1883 181.63 21.5332 181.414 21.0889C181.197 20.6331 180.958 20.3369 180.696 20.2002C180.434 20.0521 180.166 19.978 179.893 19.978C179.562 19.978 179.266 20.0692 179.004 20.2515C178.753 20.4224 178.531 20.6217 178.337 20.8496C178.155 21.0775 177.996 21.3053 177.859 21.5332C177.734 21.7611 177.625 21.932 177.534 22.0459V33.4619C177.534 33.61 177.511 33.7923 177.466 34.0088C177.42 34.2139 177.306 34.4132 177.124 34.6069C176.953 34.7892 176.691 34.943 176.338 35.0684C175.996 35.2051 175.523 35.2734 174.919 35.2734C174.316 35.2734 173.837 35.1994 173.484 35.0513C173.142 34.9146 172.88 34.7493 172.698 34.5557C172.515 34.362 172.402 34.1626 172.356 33.9575C172.31 33.7524 172.288 33.5872 172.288 33.4619V20.2686C172.288 19.9382 172.208 19.6533 172.048 19.4141C171.9 19.1634 171.644 19.0381 171.279 19.0381C171.086 19.0381 170.92 19.0723 170.784 19.1406C170.647 19.209 170.499 19.3058 170.339 19.4312L169.98 19.0039C170.243 18.7874 170.533 18.5767 170.852 18.3716C171.182 18.1551 171.536 17.9671 171.912 17.8076C172.288 17.6481 172.692 17.5171 173.125 17.4146C173.558 17.312 174.014 17.2607 174.492 17.2607C175.233 17.2607 175.808 17.3861 176.218 17.6367C176.628 17.876 176.93 18.1665 177.124 18.5083C177.318 18.8501 177.432 19.209 177.466 19.585C177.511 19.9495 177.534 20.2572 177.534 20.5078C177.956 19.904 178.434 19.3628 178.97 18.8843C179.186 18.6792 179.425 18.4798 179.688 18.2861C179.961 18.0924 180.246 17.9215 180.542 17.7734C180.85 17.6139 181.169 17.4886 181.499 17.3975C181.841 17.3063 182.188 17.2607 182.542 17.2607C183.316 17.2607 184 17.4089 184.592 17.7051C185.196 18.0013 185.703 18.4969 186.113 19.1919C186.523 19.8869 186.837 20.8097 187.053 21.9604C187.27 23.0998 187.378 24.5182 187.378 26.2158C187.378 27.8678 187.23 29.3034 186.934 30.5225C186.637 31.7415 186.25 32.7783 185.771 33.6328C185.293 34.4873 184.752 35.1823 184.148 35.7178C183.544 36.2646 182.935 36.6919 182.319 36.9995C181.704 37.3071 181.112 37.5179 180.542 37.6318C179.984 37.7572 179.5 37.8255 179.089 37.8369L178.901 37.1362C179.243 37.0565 179.556 36.9312 179.841 36.7603C180.138 36.5894 180.405 36.3387 180.645 36.0083C180.884 35.6779 181.095 35.262 181.277 34.7607C181.459 34.248 181.613 33.61 181.738 32.8467C181.875 32.0833 181.972 31.1833 182.029 30.1465C182.097 29.0983 182.131 27.8792 182.131 26.4893ZM189.822 26.25C189.822 24.7575 190.038 23.453 190.471 22.3364C190.904 21.2085 191.479 20.2686 192.197 19.5166C192.926 18.7646 193.77 18.2007 194.727 17.8247C195.684 17.4487 196.686 17.2607 197.734 17.2607C198.783 17.2607 199.785 17.4373 200.742 17.7905C201.699 18.1323 202.537 18.6621 203.254 19.3799C203.984 20.0977 204.565 21.0091 204.998 22.1143C205.431 23.208 205.647 24.5068 205.647 26.0107C205.647 27.5033 205.431 28.8249 204.998 29.9756C204.565 31.1263 203.984 32.0947 203.254 32.8809C202.537 33.667 201.699 34.2651 200.742 34.6753C199.785 35.0741 198.783 35.2734 197.734 35.2734C196.686 35.2734 195.684 35.0854 194.727 34.7095C193.77 34.3221 192.926 33.7524 192.197 33.0005C191.479 32.2485 190.904 31.3086 190.471 30.1807C190.038 29.0527 189.822 27.7425 189.822 26.25ZM200.332 26.0791C200.332 25.1676 200.298 24.2904 200.229 23.4473C200.173 22.5928 200.053 21.8351 199.871 21.1743C199.688 20.5135 199.426 19.9894 199.084 19.6021C198.743 19.2033 198.293 19.0039 197.734 19.0039C197.176 19.0039 196.726 19.2147 196.384 19.6362C196.042 20.0464 195.78 20.5933 195.598 21.2769C195.416 21.9491 195.296 22.7181 195.239 23.584C195.182 24.4499 195.154 25.3385 195.154 26.25C195.154 27.1615 195.182 28.0558 195.239 28.9331C195.296 29.799 195.416 30.5737 195.598 31.2573C195.78 31.9409 196.042 32.4935 196.384 32.915C196.726 33.3252 197.176 33.5303 197.734 33.5303C198.293 33.5303 198.743 33.3138 199.084 32.8809C199.426 32.4479 199.688 31.8783 199.871 31.1719C200.053 30.4655 200.173 29.668 200.229 28.7793C200.298 27.8906 200.332 26.9906 200.332 26.0791Z" fill="#3854A7"/>
</svg>
